<?xml version="1.0" encoding="UTF-8" standalone="no"?>
<svg
   xmlns:dc="http://purl.org/dc/elements/1.1/"
   xmlns:cc="http://creativecommons.org/ns#"
   xmlns:rdf="http://www.w3.org/1999/02/22-rdf-syntax-ns#"
   xmlns:svg="http://www.w3.org/2000/svg"
   xmlns="http://www.w3.org/2000/svg"
   xmlns:sodipodi="http://sodipodi.sourceforge.net/DTD/sodipodi-0.dtd"
   xmlns:inkscape="http://www.inkscape.org/namespaces/inkscape"
   version="1.1"
   id="svg2"
   xml:space="preserve"
   width="666.66669"
   height="236.89333"
   viewBox="0 0 666.66669 236.89333"
   sodipodi:docname="DDI-tagline2_0.eps"><metadata
     id="metadata8"><rdf:RDF><cc:Work
         rdf:about=""><dc:format>image/svg+xml</dc:format><dc:type
           rdf:resource="http://purl.org/dc/dcmitype/StillImage" /></cc:Work></rdf:RDF></metadata><defs
     id="defs6"><clipPath
       clipPathUnits="userSpaceOnUse"
       id="clipPath34"><path
         d="m 1209.89,1115.44 c 0,-315.01 -255.41,-570.311 -570.386,-570.311 -314.984,0 -570.3946,255.301 -570.3946,570.311 0,315.01 255.4106,570.41 570.3946,570.41 314.976,0 570.386,-255.4 570.386,-570.41 z"
         clip-rule="evenodd"
         id="path32" /></clipPath></defs><sodipodi:namedview
     pagecolor="#ffffff"
     bordercolor="#666666"
     borderopacity="1"
     objecttolerance="10"
     gridtolerance="10"
     guidetolerance="10"
     inkscape:pageopacity="0"
     inkscape:pageshadow="2"
     inkscape:window-width="640"
     inkscape:window-height="480"
     id="namedview4" /><g
     id="g10"
     inkscape:groupmode="layer"
     inkscape:label="ink_ext_XXXXXX"
     transform="matrix(1.3333333,0,0,-1.3333333,0,236.89333)"><g
       id="g12"
       transform="scale(0.1)"><path
         d="m 2398.21,1111.66 c 0,-315 -255.41,-570.351 -570.44,-570.351 -314.96,0 -570.34,255.351 -570.34,570.351 0,315.07 255.38,570.36 570.34,570.36 315.03,0 570.44,-255.29 570.44,-570.36"
         style="fill:#2b7582;fill-opacity:1;fill-rule:evenodd;stroke:none"
         id="path14" /><path
         d="m 3569.63,1111.66 c 0,-315 -255.38,-570.351 -570.34,-570.351 -314.98,0 -570.41,255.351 -570.41,570.351 0,315.07 255.43,570.36 570.41,570.36 314.96,0 570.34,-255.29 570.34,-570.36"
         style="fill:#458e35;fill-opacity:1;fill-rule:evenodd;stroke:none"
         id="path16" /><path
         d="m 4749.52,1111.66 c 0,-315 -255.41,-570.351 -570.41,-570.351 -314.96,0 -570.34,255.351 -570.34,570.351 0,315.07 255.38,570.36 570.34,570.36 315,0 570.41,-255.29 570.41,-570.36"
         style="fill:#6e9d2c;fill-opacity:1;fill-rule:evenodd;stroke:none"
         id="path18" /><path
         d="m 2008.2,1104.91 c 0,116.42 -79.74,198.12 -198.03,198.12 h -111.7 V 906.855 h 111.7 c 118.29,0 198.03,79.817 198.03,196.175 z M 1810.17,776.359 h -256.29 v 657.121 h 256.29 c 206.53,0 349.21,-141.78 349.21,-326.67 v -1.9 c 0,-184.902 -142.68,-328.551 -349.21,-328.551"
         style="fill:#ffffff;fill-opacity:1;fill-rule:nonzero;stroke:none"
         id="path20" /><path
         d="m 3196.64,1104.91 c 0,116.42 -79.76,198.12 -198.06,198.12 H 2886.86 V 906.855 h 111.72 c 118.3,0 198.06,79.817 198.06,196.175 z M 2998.58,776.359 h -256.33 v 657.121 h 256.33 c 206.56,0 349.21,-141.78 349.21,-326.67 v -1.9 c 0,-184.902 -142.65,-328.551 -349.21,-328.551"
         style="fill:#ffffff;fill-opacity:1;fill-rule:nonzero;stroke:none"
         id="path22" /><path
         d="m 4086.72,776.359 v 657.121 h 144.57 V 776.359 h -144.57"
         style="fill:#ffffff;fill-opacity:1;fill-rule:nonzero;stroke:none"
         id="path24" /><path
         d="m 1209.89,1115.44 c 0,-315.01 -255.41,-570.311 -570.386,-570.311 -314.984,0 -570.3946,255.301 -570.3946,570.311 0,315.01 255.4106,570.41 570.3946,570.41 314.976,0 570.386,-255.4 570.386,-570.41"
         style="fill:#204b72;fill-opacity:1;fill-rule:evenodd;stroke:none"
         id="path26" /><g
         id="g28"><g
           id="g30"
           clip-path="url(#clipPath34)"><path
             d="m 383.215,823.063 c 0,-96.594 -78.352,-174.922 -174.961,-174.922 -96.582,0 -174.9142,78.328 -174.9142,174.922 0,96.601 78.3322,174.925 174.9142,174.925 96.609,0 174.961,-78.324 174.961,-174.925 z m 139.922,58.074 c -3.078,16.832 -7.492,33.261 -13.157,49.051 l 86.036,83.192 -29.036,50.28 -115.117,-32.91 c -11.035,12.86 -23.015,24.87 -35.855,35.89 l 32.93,115.12 -50.344,29.03 -83.156,-86.01 c -15.797,5.65 -32.208,10.07 -49.083,13.15 l -29.019,116.1 H 179.23 l -29.035,-116.1 c -16.843,-3.08 -33.254,-7.5 -49.074,-13.15 l -83.1601,86.01 -50.3242,-29.03 32.941425,-115.12 C -12.293,1055.62 -24.3047,1043.61 -35.2656,1030.75 l -115.1444,32.91 -29.07,-50.28 86.0152,-83.192 c -5.6172,-15.79 -10.0122,-32.219 -13.1442,-49.051 l -116.067,-29.032 v -58.128 l 116.121,-28.997 c 3.098,-16.871 7.5237,-33.25 13.137,-49.089 l -86.062,-83.153 29.07,-50.328 115.1444,33.02 35.92185,-35.899 -33.01955,-115.16 50.3242,-29.051 83.2301,86.032 c 15.774,-5.551 32.161,-9.973 48.973,-13.051 L 179.23,392.102 h 58.106 l 29.051,116.199 c 16.843,3.078 33.183,7.5 48.957,13.051 l 83.25,-86.032 50.344,29.051 -32.981,115.16 c 0,0 24.856,22.989 35.906,35.938 l 115.117,-33.059 29.036,50.328 -86.036,83.153 c 5.618,15.839 10.032,32.218 13.157,49.089 l 116.121,28.997 v 58.128 l -116.121,29.032"
             style="fill:#ffffff;fill-opacity:1;fill-rule:evenodd;stroke:none"
             id="path36" /><path
             d="m 208.254,990.102 c -92.07,0 -167.004,-74.907 -167.004,-167.039 0,-92.083 74.934,-167.032 167.004,-167.032 92.144,0 167.066,74.949 167.066,167.032 0,92.132 -74.922,167.039 -167.066,167.039 z m 0,-349.864 c -100.781,0 -182.7931,82 -182.7931,182.825 0,100.824 82.0121,182.827 182.7931,182.827 100.809,0 182.851,-82.003 182.851,-182.827 0,-100.825 -82.042,-182.825 -182.851,-182.825 z m -22.871,-240.25 h 45.75 l 28.855,115.16 4.985,0.891 c 16.16,2.93 32.175,7.25 47.73,12.762 l 4.785,1.738 82.5,-85.32 39.653,22.871 -32.621,113.922 3.566,3.328 c 0.242,0.199 24.656,22.789 35.273,35.25 l 3.274,3.82 114.097,-32.711 22.875,39.653 -85.238,82.449 1.711,4.777 c 5.469,15.481 9.766,31.57 12.774,47.844 l 0.949,4.969 115.047,28.738 v 45.824 l -115.071,28.785 -0.925,5.02 c -2.957,16.222 -7.278,32.312 -12.774,47.793 l -1.726,4.824 85.253,82.395 -22.875,39.62 -114.097,-32.62 -3.274,3.82 c -10.714,12.56 -22.48,24.33 -35.007,35.05 l -3.832,3.27 32.621,114.13 -39.653,22.87 -82.398,-85.27 -4.785,1.74 c -15.434,5.51 -31.575,9.78 -47.856,12.81 l -5.008,0.88 -28.808,115.07 h -45.75 l -28.742,-115.07 -5.008,-0.88 c -16.328,-3.03 -32.395,-7.3 -47.871,-12.81 l -4.7893,-1.74 -82.3985,85.27 -39.6523,-22.87 32.66794,-114.13 -3.88671,-3.27 c -12.61719,-10.82 -24.38283,-22.59 -34.96093,-35 l -3.3203,-3.87 -114.0939,32.62 -22.898,-39.62 85.2536,-82.395 -1.7109,-4.824 c -5.4883,-15.481 -9.8125,-31.571 -12.8125,-47.844 l -0.9063,-4.969 -115.0509,-28.785 v -45.824 l 115.0822,-28.738 0.8945,-4.969 c 3.0117,-16.274 7.3281,-32.363 12.8242,-47.844 l 1.7109,-4.777 -85.2848,-82.449 22.898,-39.653 113.6759,32.563 42.48829,-42.442 -32.57029,-113.73 39.6523,-22.871 82.4688,85.32 4.785,-1.738 c 15.508,-5.512 31.57,-9.781 47.754,-12.762 l 5.027,-0.891 z m 58.101,-15.789 h -70.41 L 143.75,501.5 c -13.652,2.68 -27.195,6.301 -40.383,10.77 l -84.0115,-86.872 -61.0469,35.204 33.48046,116.597 -29.37886,29.34 -116.5982,-33.41 -35.207,61.012 86.868,83.988 c -4.446,13.152 -8.11,26.711 -10.864,40.41 l -117.195,29.285 v 70.481 l 117.195,29.242 c 2.739,13.695 6.371,27.293 10.813,40.508 l -86.817,83.935 35.207,60.96 116.2388,-33.26 c 9.1289,10.42 19.0429,20.35 29.56248,29.59 l -33.30468,116.2 61.0469,35.25 83.9335,-86.82 c 13.188,4.47 26.738,8.09 40.481,10.81 l 29.304,117.21 h 70.41 l 29.297,-117.21 c 13.75,-2.72 27.324,-6.34 40.481,-10.81 l 83.945,86.82 61.008,-35.25 -33.254,-116.2 c 10.43,-9.19 20.344,-19.12 29.543,-29.59 l 116.219,33.26 35.234,-60.96 -86.848,-83.935 c 4.465,-13.215 8.11,-26.766 10.84,-40.508 L 647.141,858.305 V 787.824 L 529.922,758.539 c -2.734,-13.699 -6.348,-27.258 -10.813,-40.41 l 86.848,-83.988 -35.234,-61.012 -116.258,33.359 c -9.238,-10.078 -23.078,-23.328 -29.57,-29.379 l 33.32,-116.507 -61.008,-35.204 -84.043,86.872 C 299.98,507.801 286.438,504.18 272.832,501.5 L 243.484,384.199"
             style="fill:#ffffff;fill-opacity:1;fill-rule:nonzero;stroke:none"
             id="path38" /><path
             d="m 1115.48,1155.2 c 0,-131.63 -106.72,-238.368 -238.371,-238.368 -131.589,0 -238.32,106.738 -238.32,238.368 0,131.6 106.731,238.37 238.32,238.37 131.651,0 238.371,-106.77 238.371,-238.37"
             style="fill:#ffffff;fill-opacity:1;fill-rule:evenodd;stroke:none"
             id="path40" /><path
             d="m 877.109,1385.63 c -127.031,0 -230.398,-103.4 -230.398,-230.43 0,-127.07 103.367,-230.473 230.398,-230.473 127.081,0 230.461,103.403 230.461,230.473 0,127.03 -103.38,230.43 -230.461,230.43 z m 0,-476.685 c -135.754,0 -246.23,110.445 -246.23,246.255 0,135.76 110.476,246.21 246.23,246.21 135.801,0 246.251,-110.45 246.251,-246.21 0,-135.81 -110.45,-246.255 -246.251,-246.255"
             style="fill:#ffffff;fill-opacity:1;fill-rule:nonzero;stroke:none"
             id="path42" /><path
             d="m 914.148,1391.93 -20.488,81.96 h -33.101 l -20.461,-81.96 -13.067,3.23 23.059,92.18 h 54.07 l 23.028,-92.18 -13.04,-3.23"
             style="fill:#ffffff;fill-opacity:1;fill-rule:evenodd;stroke:none"
             id="path44" /><path
             d="m 920.664,1393.57 -21.746,87.02 h -43.613 l -21.75,-87.02"
             style="fill:#ffffff;fill-opacity:1;fill-rule:evenodd;stroke:none"
             id="path46" /><path
             d="m 637.109,1105.11 -92.148,23.03 v 54.11 l 92.148,23.04 3.289,-13.1 -81.98,-20.46 v -33.11 l 81.98,-20.44 -3.289,-13.07"
             style="fill:#ffffff;fill-opacity:1;fill-rule:evenodd;stroke:none"
             id="path48" /><path
             d="m 638.738,1198.73 -87.058,-21.79 v -43.58 l 87.058,-21.74"
             style="fill:#ffffff;fill-opacity:1;fill-rule:evenodd;stroke:none"
             id="path50" /><path
             d="m 1117.74,1105.11 -3.27,13.07 81.97,20.49 v 33.06 l -81.97,20.46 3.27,13.1 92.15,-23.04 v -54.11 l -92.15,-23.03"
             style="fill:#ffffff;fill-opacity:1;fill-rule:evenodd;stroke:none"
             id="path52" /><path
             d="m 1116.11,1111.62 87.04,21.79 v 43.58 l -87.04,21.74"
             style="fill:#ffffff;fill-opacity:1;fill-rule:evenodd;stroke:none"
             id="path54" /><path
             d="m 1081.71,1287.19 -11.45,7.1 44.53,71.84 -23.04,23.71 -73.11,-42.43 -6.76,11.65 82.18,47.66 37.65,-38.77 -50,-80.76"
             style="fill:#ffffff;fill-opacity:1;fill-rule:evenodd;stroke:none"
             id="path56" /><path
             d="m 1076,1290.76 47.29,76.3 -30.42,31.23 -77.57,-45.02"
             style="fill:#ffffff;fill-opacity:1;fill-rule:evenodd;stroke:none"
             id="path58" /><path
             d="m 1094.06,903.977 -82.18,47.707 6.76,11.609 73.11,-42.383 23.04,23.719 -44.53,71.831 11.45,7.06 50,-80.719 -37.65,-38.824"
             style="fill:#ffffff;fill-opacity:1;fill-rule:evenodd;stroke:none"
             id="path60" /><path
             d="m 1015.3,957.48 77.57,-45.066 30.42,31.274 -47.29,76.292"
             style="fill:#ffffff;fill-opacity:1;fill-rule:evenodd;stroke:none"
             id="path62" /><path
             d="m 673.535,1294.59 -50.051,80.76 37.676,38.77 82.153,-47.7 -6.743,-11.62 -73.093,42.39 -23.047,-23.67 44.511,-71.83 -11.406,-7.1"
             style="fill:#ffffff;fill-opacity:1;fill-rule:evenodd;stroke:none"
             id="path64" /><path
             d="m 739.941,1360.61 -77.605,45.07 -30.383,-31.27 47.277,-76.3"
             style="fill:#ffffff;fill-opacity:1;fill-rule:evenodd;stroke:none"
             id="path66" /><path
             d="m 661.16,903.977 -37.676,38.824 50.051,80.719 11.406,-7.06 -44.511,-71.831 23.047,-23.719 73.093,42.383 6.743,-11.609 -82.153,-47.707"
             style="fill:#ffffff;fill-opacity:1;fill-rule:evenodd;stroke:none"
             id="path68" /><path
             d="m 679.23,1019.98 -47.277,-76.292 30.383,-31.274 77.605,45.066"
             style="fill:#ffffff;fill-opacity:1;fill-rule:evenodd;stroke:none"
             id="path70" /><path
             d="m 904.16,823.012 h -54.07 l -23.059,92.183 13.067,3.223 20.461,-81.898 h 33.101 l 20.488,81.898 13.04,-3.223 -23.028,-92.183"
             style="fill:#ffffff;fill-opacity:1;fill-rule:evenodd;stroke:none"
             id="path72" /><path
             d="m 833.555,916.832 21.75,-87.066 h 43.613 l 21.746,87.066"
             style="fill:#ffffff;fill-opacity:1;fill-rule:evenodd;stroke:none"
             id="path74" /><path
             d="m 988.613,1159.81 c 0,-61.6 -49.929,-111.53 -111.523,-111.53 -61.602,0 -111.504,49.93 -111.504,111.53 0,61.57 49.902,111.49 111.504,111.49 61.594,0 111.523,-49.92 111.523,-111.49"
             style="fill:#204b72;fill-opacity:1;fill-rule:evenodd;stroke:none"
             id="path76" /><path
             d="m 877.09,1263.42 c -57.141,0 -103.621,-46.51 -103.621,-103.61 0,-57.18 46.48,-103.64 103.621,-103.64 57.156,0 103.64,46.46 103.64,103.64 0,57.1 -46.484,103.61 -103.64,103.61 z m 0,-223.03 c -65.828,0 -119.395,53.61 -119.395,119.42 0,65.83 53.567,119.39 119.395,119.39 65.82,0 119.414,-53.56 119.414,-119.39 0,-65.81 -53.594,-119.42 -119.414,-119.42"
             style="fill:#ffffff;fill-opacity:1;fill-rule:nonzero;stroke:none"
             id="path78" /><path
             d="m 536.074,1548.8 c 0,-111.85 -90.703,-202.54 -202.551,-202.54 -111.89,0 -202.593,90.69 -202.593,202.54 0,111.93 90.703,202.62 202.593,202.62 111.848,0 202.551,-90.69 202.551,-202.62"
             style="fill:#ffffff;fill-opacity:1;fill-rule:evenodd;stroke:none"
             id="path80" /><path
             d="m 333.523,1743.52 c -107.371,0 -194.707,-87.31 -194.707,-194.72 0,-107.34 87.336,-194.64 194.707,-194.64 107.305,0 194.668,87.3 194.668,194.64 0,107.41 -87.363,194.72 -194.668,194.72 z m 0,-405.14 c -116.089,0 -210.503,94.36 -210.503,210.42 0,116.1 94.414,210.52 210.503,210.52 116.028,0 210.442,-94.42 210.442,-210.52 0,-116.06 -94.414,-210.42 -210.442,-210.42"
             style="fill:#ffffff;fill-opacity:1;fill-rule:nonzero;stroke:none"
             id="path82" /><path
             d="m 127.637,1498.76 -84.2112,21.04 v 58.08 l 84.1642,20.99 6.558,-26.05 -63.8472,-15.94 v -16.08 l 63.8472,-15.98 -6.511,-26.06"
             style="fill:#ffffff;fill-opacity:1;fill-rule:evenodd;stroke:none"
             id="path84" /><path
             d="m 130.859,1585.87 -73.984,-18.51 v -37.08 l 73.984,-18.47"
             style="fill:#ffffff;fill-opacity:1;fill-rule:evenodd;stroke:none"
             id="path86" /><path
             d="m 539.883,1498.76 -6.516,26.06 63.821,15.98 v 16.08 l -63.821,15.94 6.516,26.05 84.211,-20.99 v -58.02 l -84.211,-21.1"
             style="fill:#ffffff;fill-opacity:1;fill-rule:evenodd;stroke:none"
             id="path88" /><path
             d="m 536.641,1511.81 74.004,18.52 v 37.03 l -74.004,18.51"
             style="fill:#ffffff;fill-opacity:1;fill-rule:evenodd;stroke:none"
             id="path90" /><path
             d="m 513.953,1657.01 -22.848,14.1 34.649,55.99 -11.137,11.51 -56.929,-33.05 -13.508,23.23 75.078,43.63 40.398,-41.66 -45.703,-73.75"
             style="fill:#ffffff;fill-opacity:1;fill-rule:evenodd;stroke:none"
             id="path92" /><path
             d="m 502.559,1664.05 40.136,64.83 -25.808,26.6 -65.942,-38.32"
             style="fill:#ffffff;fill-opacity:1;fill-rule:evenodd;stroke:none"
             id="path94" /><path
             d="m 519.258,1325.62 -75.059,43.58 13.489,23.23 56.929,-33.01 11.137,11.47 -34.649,55.94 22.848,14.15 45.703,-73.77 -40.398,-41.59"
             style="fill:#ffffff;fill-opacity:1;fill-rule:evenodd;stroke:none"
             id="path96" /><path
             d="m 450.945,1380.76 65.942,-38.22 25.808,26.51 -40.136,64.87"
             style="fill:#ffffff;fill-opacity:1;fill-rule:evenodd;stroke:none"
             id="path98" /><path
             d="m 153.879,1663.21 -45.727,73.82 40.453,41.59 112.364,-62.2 -50.832,-4.56 -56.914,32.96 -11.16,-11.47 34.667,-55.99 -22.851,-14.15"
             style="fill:#ffffff;fill-opacity:1;fill-rule:evenodd;stroke:none"
             id="path100" /><path
             d="m 216.895,1723.43 -65.965,38.32 -25.813,-26.57 40.164,-64.87"
             style="fill:#ffffff;fill-opacity:1;fill-rule:evenodd;stroke:none"
             id="path102" /><path
             d="m 148.605,1325.62 -40.453,41.59 45.727,73.77 22.851,-14.15 -34.667,-55.94 11.207,-11.47 56.867,33.01 13.496,-23.23 -75.028,-43.58"
             style="fill:#ffffff;fill-opacity:1;fill-rule:evenodd;stroke:none"
             id="path104" /><path
             d="m 165.281,1433.92 -40.164,-64.87 25.813,-26.51 65.965,38.22"
             style="fill:#ffffff;fill-opacity:1;fill-rule:evenodd;stroke:none"
             id="path106" /><path
             d="m 362.488,1258.8 h -58.035 l -21.023,84.19 26.101,6.55 15.918,-63.89 h 16.067 l 15.996,63.89 26.074,-6.55 -21.098,-84.19"
             style="fill:#ffffff;fill-opacity:1;fill-rule:evenodd;stroke:none"
             id="path108" /><path
             d="m 296.465,1346.26 18.508,-74.01 h 37.039 l 18.508,74.01"
             style="fill:#ffffff;fill-opacity:1;fill-rule:evenodd;stroke:none"
             id="path110" /><path
             d="m 428.262,1552.77 c 0,-52.38 -42.41,-94.82 -94.785,-94.82 -52.344,0 -94.805,42.44 -94.805,94.82 0,52.32 42.461,94.8 94.805,94.8 52.375,0 94.785,-42.48 94.785,-94.8"
             style="fill:#204b72;fill-opacity:1;fill-rule:evenodd;stroke:none"
             id="path112" /><path
             d="m 333.477,1639.68 c -47.903,0 -86.895,-39.02 -86.895,-86.91 0,-47.91 38.992,-86.92 86.895,-86.92 47.929,0 86.894,39.01 86.894,86.92 0,47.89 -38.965,86.91 -86.894,86.91 z m 0,-189.62 c -56.614,0 -102.664,46.06 -102.664,102.71 0,56.62 46.05,102.65 102.664,102.65 56.621,0 102.668,-46.03 102.668,-102.65 0,-56.65 -46.047,-102.71 -102.668,-102.71"
             style="fill:#ffffff;fill-opacity:1;fill-rule:nonzero;stroke:none"
             id="path114" /></g></g><path
         d="m 235.203,83.9297 c 17.277,0 31.145,6.5703 41.606,19.7113 10.457,13.129 15.679,30.347 15.679,51.629 0,22.07 -5.261,39.511 -15.8,52.3 -10.528,12.801 -24.708,19.192 -42.528,19.192 H 201.992 V 83.9297 Z m 3.242,173.7423 c 16.821,0 31.782,-4.344 44.907,-13.043 13.113,-8.688 23.289,-20.891 30.543,-36.617 7.257,-15.723 10.878,-33.403 10.878,-53.032 0,-20.019 -3.64,-37.769 -10.933,-53.25 -7.285,-15.48 -17.649,-27.4683 -31.074,-35.9605 -13.418,-8.5 -28.813,-12.75 -46.172,-12.75 H 170.742 V 257.672 h 67.703"
         style="fill:#204b72;fill-opacity:1;fill-rule:nonzero;stroke:none"
         id="path116" /><path
         d="m 402.246,132.859 h 52.188 l -27.305,81.012 z M 442.98,257.672 514.387,53.0195 H 481.406 L 464.617,102.832 H 392.754 L 377.129,53.0195 h -32.742 l 66.648,204.6525 h 31.945"
         style="fill:#204b72;fill-opacity:1;fill-rule:nonzero;stroke:none"
         id="path118" /><path
         d="m 660.371,257.672 v -30.91 H 602.969 V 53.0195 h -31.25 V 226.762 h -57.403 v 30.91 h 146.055"
         style="fill:#204b72;fill-opacity:1;fill-rule:nonzero;stroke:none"
         id="path120" /><path
         d="m 718.164,132.859 h 52.188 l -27.305,81.012 z m 40.731,124.813 71.41,-204.6525 H 797.324 L 780.535,102.832 H 708.672 L 693.047,53.0195 h -32.742 l 66.648,204.6525 h 31.942"
         style="fill:#204b72;fill-opacity:1;fill-rule:nonzero;stroke:none"
         id="path122" /><path
         d="m 1003.29,83.9297 c 17.28,0 31.14,6.5703 41.6,19.7113 10.46,13.129 15.69,30.347 15.69,51.629 0,22.07 -5.27,39.511 -15.8,52.3 -10.53,12.801 -24.71,19.192 -42.53,19.192 H 970.078 V 83.9297 Z m 3.24,173.7423 c 16.82,0 31.78,-4.344 44.91,-13.043 13.11,-8.688 23.29,-20.891 30.54,-36.617 7.26,-15.723 10.88,-33.403 10.88,-53.032 0,-20.019 -3.64,-37.769 -10.94,-53.25 -7.28,-15.48 -17.64,-27.4683 -31.07,-35.9605 -13.42,-8.5 -28.81,-12.75 -46.17,-12.75 H 938.828 V 257.672 h 67.702"
         style="fill:#204b72;fill-opacity:1;fill-rule:nonzero;stroke:none"
         id="path124" /><path
         d="m 1159.69,155.27 c 0,-13.571 2.43,-25.782 7.28,-36.622 4.87,-10.839 11.63,-19.2378 20.32,-25.1988 8.68,-5.9492 18.49,-8.9297 29.45,-8.9297 16.59,0 30.22,6.5899 40.91,19.7815 10.68,13.179 16.03,30.168 16.03,50.969 0,13.582 -2.41,25.808 -7.23,36.699 -4.83,10.89 -11.62,19.312 -20.38,25.269 -8.76,5.953 -18.61,8.942 -29.57,8.942 -10.95,0 -20.81,-3.008 -29.57,-9.008 -8.75,-6.012 -15.48,-14.41 -20.18,-25.203 -4.71,-10.789 -7.06,-23.02 -7.06,-36.699 z m 57.05,105.039 c 16.74,0 31.8,-4.368 45.19,-13.11 13.38,-8.738 24.06,-21.34 32,-37.789 7.95,-16.461 11.92,-34.512 11.92,-54.14 0,-19.141 -3.88,-36.891 -11.63,-53.239 -7.76,-16.3708 -18.4,-29.0622 -31.94,-38.0896 -13.54,-9.043 -28.8,-13.5508 -45.78,-13.5508 -16.73,0 -31.95,4.5899 -45.65,13.7696 -13.69,9.1796 -24.36,21.8007 -31.99,37.8708 -7.65,16.059 -11.47,33.809 -11.47,53.239 0,18.75 3.82,36.378 11.47,52.89 7.63,16.5 18.16,29.32 31.59,38.449 13.42,9.129 28.85,13.7 46.29,13.7"
         style="fill:#204b72;fill-opacity:1;fill-rule:nonzero;stroke:none"
         id="path126" /><path
         d="m 1431.81,260.309 c 9.19,0 18.17,-1.321 26.97,-3.957 8.79,-2.633 18.28,-7.133 28.47,-13.473 v -37.207 c -9.96,7.226 -19.15,12.449 -27.6,15.668 -8.46,3.23 -17.27,4.84 -26.45,4.84 -11.5,0 -21.87,-3.008 -31.13,-9.008 -9.26,-6.012 -16.45,-14.481 -21.58,-25.422 -5.14,-10.941 -7.7,-23.102 -7.7,-36.48 0,-13.668 2.54,-25.918 7.64,-36.758 5.09,-10.84 12.27,-19.2229 21.52,-25.1331 9.26,-5.9101 19.68,-8.8594 31.25,-8.8594 8.87,0 17.34,1.6094 25.4,4.8321 8.06,3.2187 18.23,9.0273 30.5,17.4374 V 69.5781 c -10.5,-6.9375 -20.14,-11.8672 -28.93,-14.7968 -8.8,-2.9297 -19.07,-4.3907 -30.79,-4.3907 -17.05,0 -32.29,4.2891 -45.71,12.8907 -13.43,8.5898 -23.97,20.9687 -31.66,37.1287 -7.67,16.172 -11.51,33.871 -11.51,53.11 0,20.601 3.95,39.109 11.86,55.519 7.91,16.41 18.79,29.051 32.64,37.941 13.85,8.891 29.45,13.329 46.81,13.329"
         style="fill:#204b72;fill-opacity:1;fill-rule:nonzero;stroke:none"
         id="path128" /><path
         d="M 1560.78,257.672 V 138.57 c 0,-12.211 1.45,-21.922 4.35,-29.148 2.89,-7.231 7.61,-13.1837 14.17,-17.8712 6.56,-4.6914 14.2,-7.0313 22.92,-7.0313 9.56,0 17.68,2.2188 24.35,6.6602 6.67,4.4492 11.56,10.5003 14.64,18.1723 3.09,7.668 4.63,18.289 4.63,31.859 v 116.461 h 31.25 V 136.078 c 0,-27.527 -6.52,-48.7069 -19.56,-63.4999 -13.04,-14.7968 -31.48,-22.1875 -55.31,-22.1875 -14.97,0 -27.95,3.3711 -38.95,10.0977 -10.99,6.7422 -19.38,16.4805 -25.17,29.2305 -5.79,12.7502 -8.68,27.7112 -8.68,44.9022 v 123.051 h 31.36"
         style="fill:#204b72;fill-opacity:1;fill-rule:nonzero;stroke:none"
         id="path130" /><path
         d="m 1751.55,257.672 53.12,-80.723 53.12,80.723 h 27.89 V 53.0195 h -31.25 V 196.73 h -0.92 l -46.76,-72.07 h -4.4 l -46.75,72.07 h -0.92 V 53.0195 h -31.25 V 257.672 h 28.12"
         style="fill:#204b72;fill-opacity:1;fill-rule:nonzero;stroke:none"
         id="path132" /><path
         d="m 2037.68,257.672 v -30.91 h -73.26 V 173 h 70.13 v -30.91 h -70.13 V 83.9297 h 74.88 V 53.0195 H 1933.17 V 257.672 h 104.51"
         style="fill:#204b72;fill-opacity:1;fill-rule:nonzero;stroke:none"
         id="path134" /><path
         d="M 2107.74,257.672 2203.8,114.84 v 142.832 h 30.55 V 53.0195 H 2207.5 L 2110.87,198.199 V 53.0195 h -30.56 V 257.672 h 27.43"
         style="fill:#204b72;fill-opacity:1;fill-rule:nonzero;stroke:none"
         id="path136" /><path
         d="m 2415.85,257.672 v -30.91 h -57.4 V 53.0195 H 2327.2 V 226.762 h -57.41 v 30.91 h 146.06"
         style="fill:#204b72;fill-opacity:1;fill-rule:nonzero;stroke:none"
         id="path138" /><path
         d="m 2473.65,132.859 h 52.19 l -27.3,81.012 z m 40.73,124.813 71.41,-204.6525 h -32.98 l -16.78,49.8125 h -71.87 l -15.62,-49.8125 h -32.75 l 66.65,204.6525 h 31.94"
         style="fill:#204b72;fill-opacity:1;fill-rule:nonzero;stroke:none"
         id="path140" /><path
         d="m 2731.77,257.672 v -30.91 h -57.4 V 53.0195 h -31.25 V 226.762 h -57.41 v 30.91 h 146.06"
         style="fill:#204b72;fill-opacity:1;fill-rule:nonzero;stroke:none"
         id="path142" /><path
         d="M 2799.29,257.672 V 53.0195 h -31.25 V 257.672 h 31.25"
         style="fill:#204b72;fill-opacity:1;fill-rule:nonzero;stroke:none"
         id="path144" /><path
         d="m 2873.28,155.27 c 0,-13.571 2.43,-25.782 7.29,-36.622 4.86,-10.839 11.63,-19.2378 20.31,-25.1988 8.68,-5.9492 18.5,-8.9297 29.45,-8.9297 16.59,0 30.23,6.5899 40.91,19.7815 10.68,13.179 16.04,30.168 16.04,50.969 0,13.582 -2.42,25.808 -7.24,36.699 -4.83,10.89 -11.61,19.312 -20.37,25.269 -8.76,5.953 -18.62,8.942 -29.57,8.942 -10.96,0 -20.81,-3.008 -29.57,-9.008 -8.75,-6.012 -15.49,-14.41 -20.19,-25.203 -4.71,-10.789 -7.06,-23.02 -7.06,-36.699 z m 57.05,105.039 c 16.74,0 31.81,-4.368 45.2,-13.11 13.38,-8.738 24.05,-21.34 31.99,-37.789 7.95,-16.461 11.92,-34.512 11.92,-54.14 0,-19.141 -3.87,-36.891 -11.63,-53.239 -7.75,-16.3708 -18.4,-29.0622 -31.94,-38.0896 -13.54,-9.043 -28.8,-13.5508 -45.77,-13.5508 -16.74,0 -31.96,4.5899 -45.66,13.7696 -13.69,9.1796 -24.35,21.8007 -31.99,37.8708 -7.65,16.059 -11.46,33.809 -11.46,53.239 0,18.75 3.81,36.378 11.46,52.89 7.64,16.5 18.17,29.32 31.59,38.449 13.42,9.129 28.85,13.7 46.29,13.7"
         style="fill:#204b72;fill-opacity:1;fill-rule:nonzero;stroke:none"
         id="path146" /><path
         d="m 3088.01,257.672 96.05,-142.832 v 142.832 h 30.55 V 53.0195 h -26.85 L 3091.13,198.199 V 53.0195 h -30.55 V 257.672 h 27.43"
         style="fill:#204b72;fill-opacity:1;fill-rule:nonzero;stroke:none"
         id="path148" /><path
         d="M 3371.63,257.672 V 53.0195 h -31.25 V 257.672 h 31.25"
         style="fill:#204b72;fill-opacity:1;fill-rule:nonzero;stroke:none"
         id="path150" /><path
         d="m 3447.26,257.672 96.05,-142.832 v 142.832 h 30.55 V 53.0195 h -26.85 L 3450.38,198.199 V 53.0195 h -30.56 V 257.672 h 27.44"
         style="fill:#204b72;fill-opacity:1;fill-rule:nonzero;stroke:none"
         id="path152" /><path
         d="M 3653.17,257.672 V 53.0195 h -31.25 V 257.672 h 31.25"
         style="fill:#204b72;fill-opacity:1;fill-rule:nonzero;stroke:none"
         id="path154" /><path
         d="m 3835.5,257.672 v -30.91 h -57.4 V 53.0195 h -31.25 V 226.762 h -57.41 v 30.91 h 146.06"
         style="fill:#204b72;fill-opacity:1;fill-rule:nonzero;stroke:none"
         id="path156" /><path
         d="M 3903.01,257.672 V 53.0195 h -31.25 V 257.672 h 31.25"
         style="fill:#204b72;fill-opacity:1;fill-rule:nonzero;stroke:none"
         id="path158" /><path
         d="m 3992.4,132.859 h 52.19 l -27.3,81.012 z m 40.73,124.813 71.41,-204.6525 h -32.98 l -16.78,49.8125 h -71.87 l -15.62,-49.8125 h -32.75 l 66.65,204.6525 h 31.94"
         style="fill:#204b72;fill-opacity:1;fill-rule:nonzero;stroke:none"
         id="path160" /><path
         d="m 4250.52,257.672 v -30.91 h -57.4 V 53.0195 h -31.25 V 226.762 h -57.41 v 30.91 h 146.06"
         style="fill:#204b72;fill-opacity:1;fill-rule:nonzero;stroke:none"
         id="path162" /><path
         d="M 4318.04,257.672 V 53.0195 h -31.25 V 257.672 h 31.25"
         style="fill:#204b72;fill-opacity:1;fill-rule:nonzero;stroke:none"
         id="path164" /><path
         d="m 4382.54,257.672 45.71,-131.402 44.55,131.402 h 32.76 L 4434.15,50.3906 h -10.88 l -73.71,207.2814 h 32.98"
         style="fill:#204b72;fill-opacity:1;fill-rule:nonzero;stroke:none"
         id="path166" /><path
         d="m 4640.89,257.672 v -30.91 h -73.25 V 173 h 70.12 v -30.91 h -70.12 V 83.9297 h 74.87 V 53.0195 H 4536.39 V 257.672 h 104.5"
         style="fill:#204b72;fill-opacity:1;fill-rule:nonzero;stroke:none"
         id="path168" /><path
         d="m 4817.19,1554.82 c 7.12,0 12.61,1.49 16.47,4.47 3.86,2.98 5.79,7.21 5.79,12.67 0,5.47 -2.03,9.65 -6.08,12.53 -4.05,2.88 -9.44,4.32 -16.18,4.32 h -26.97 v -33.99 z m 8.49,51.72 c 10.94,0 19.83,-3 26.66,-9.01 6.84,-6.01 10.26,-13.85 10.26,-23.51 0,-9.28 -2.98,-17.05 -8.94,-23.3 -5.95,-6.25 -13.91,-9.76 -23.87,-10.54 v -0.59 c 4.29,-1.46 8.22,-3.93 11.78,-7.4 3.57,-3.46 8.48,-10.52 14.73,-21.16 l 14.06,-23.74 h -26.95 l -5.57,10.55 c -4.78,9.76 -9.3,17.65 -13.55,23.66 -4.25,6.01 -7.93,10.06 -11.06,12.16 -3.13,2.1 -7.47,3.15 -13.03,3.15 h -9.98 v -49.52 h -21.82 v 119.25 z m -101.67,-58.6 c 0,-16.6 4.12,-31.93 12.39,-45.99 8.25,-14.07 19.3,-25.11 33.17,-33.11 13.87,-8.02 28.96,-12.02 45.27,-12.02 16.51,0 31.84,4.11 46,12.31 14.16,8.2 25.29,19.28 33.4,33.25 8.1,13.97 12.16,29.16 12.16,45.56 0,16.21 -4.11,31.35 -12.31,45.42 -8.2,14.06 -19.33,25.17 -33.4,33.32 -14.06,8.16 -29.34,12.23 -45.85,12.23 -16.22,0 -31.32,-4.03 -45.34,-12.08 -14.01,-8.06 -25.1,-19.19 -33.25,-33.4 -8.15,-14.22 -12.24,-29.38 -12.24,-45.49 z m -20.5,0 c 0,19.83 4.88,38.28 14.64,55.38 9.77,17.09 23.37,30.68 40.81,40.79 17.43,10.11 36.15,15.16 56.18,15.16 20.41,0 39.21,-5 56.39,-15.01 17.19,-10.01 30.64,-23.66 40.36,-40.94 9.72,-17.29 14.57,-35.75 14.57,-55.38 0,-20.51 -5,-39.35 -15,-56.54 -10.02,-17.2 -23.62,-30.67 -40.81,-40.44 -17.18,-9.76 -35.69,-14.65 -55.51,-14.65 -20.03,0 -38.75,5.08 -56.18,15.24 -17.44,10.15 -31.04,23.7 -40.81,40.65 -9.76,16.94 -14.64,35.53 -14.64,55.74"
         style="fill:#6e9d2c;fill-opacity:1;fill-rule:nonzero;stroke:none"
         id="path170" /></g></g></svg>
